<svg width="286" height="286" viewBox="0 0 286 286" fill="none" xmlns="http://www.w3.org/2000/svg">
<path fill-rule="evenodd" clip-rule="evenodd" d="M142.968 61.6405C122.347 61.6405 101.773 68.6715 85.0185 82.7301C74.9344 91.1919 67.1406 101.488 61.7279 112.762C60.9767 112.69 60.2457 112.527 59.4744 112.527C46.0057 112.527 35.1609 123.372 35.1609 136.84V166.89C35.1609 180.358 46.0057 191.202 59.4744 191.202C60.2457 191.202 60.9767 191.035 61.7279 190.968C62.697 192.977 63.6997 194.971 64.8298 196.93C69.2476 204.814 81.0504 198.064 76.4927 190.258C57.8319 157.936 65.0589 116.978 93.6486 92.9882C122.239 68.9978 163.766 68.9978 192.357 92.9882C220.947 116.978 228.174 157.935 209.513 190.258L209.311 190.593L209.177 190.927C209.177 190.927 200.114 210.977 182.317 210.977L159.789 210.776C157.676 207.69 154.295 205.542 150.258 205.542H135.735C129.224 205.542 123.986 210.797 123.986 217.309C123.986 221.325 126.535 224.375 132.367 224.375L182.317 224.379C209.023 224.379 220.574 198.16 221.1 196.947V196.875C222.22 194.934 223.206 192.94 224.168 190.949C224.953 191.02 225.717 191.183 226.526 191.183C239.994 191.183 250.839 180.339 250.839 166.87V136.821C250.839 123.353 239.994 112.508 226.526 112.508C225.748 112.508 225.013 112.637 224.255 112.743C218.855 101.468 211.085 91.1729 200.999 82.7106C184.245 68.652 163.585 61.6208 142.963 61.6208L142.968 61.6405ZM113.664 104.357C108.43 104.015 103.649 105.122 99.4714 109.521C88.331 121.25 81.4488 137.214 81.4488 154.214C81.4488 168.236 86.1352 183.949 94.0298 184.523C105.277 185.341 123.025 177.955 143.003 177.955C164.173 177.955 182.855 186.242 193.934 184.28C200.648 183.093 204.574 167.044 204.574 154.214C204.574 137.214 197.675 121.25 186.534 109.521C175.394 97.7925 160.003 109.521 143.003 109.521C132.378 109.521 122.387 104.93 113.664 104.357ZM111.169 133.262C117.38 133.265 122.414 138.299 122.416 144.51C122.414 150.72 117.38 155.754 111.169 155.756C104.959 155.754 99.9245 150.72 99.9225 144.51C99.9245 138.299 104.959 133.265 111.169 133.262ZM174.837 133.262C181.048 133.265 186.082 138.299 186.084 144.51C186.082 150.72 181.048 155.754 174.837 155.756C168.627 155.754 163.593 150.72 163.59 144.51C163.593 138.299 168.627 133.265 174.837 133.262Z" fill="#E45580"/>
</svg>
