<svg width="500" height="500" viewBox="0 0 500 500" fill="none" xmlns="http://www.w3.org/2000/svg">
<path d="M97.929 59.0431H62.771V70.2331H97.929V59.0431Z" fill="#EBEBEB"/>
<path d="M339.92 191.564H304.762V202.754H339.92V191.564Z" fill="#EBEBEB"/>
<path d="M78.317 44.9331C72.478 45.0311 57.506 45.2811 51.87 45.3461L43.159 45.3891L43.615 44.9331L43.659 56.1231L43.16 55.6241C48.998 55.6421 63.887 55.6961 69.528 55.7771L78.317 55.8861L78.08 56.1231L78.317 44.9331ZM78.317 44.9331L78.554 56.1231L78.559 56.3581L78.317 56.3611C73.931 56.4191 65.122 56.5201 60.738 56.5551L43.159 56.6231L42.658 56.6251L42.66 56.1231L42.704 44.9331L42.706 44.4751L43.16 44.4771L52.028 44.5201C57.628 44.5821 72.533 44.8341 78.317 44.9331Z" fill="#EBEBEB"/>
<path d="M177.81 285.979C171.971 286.077 156.999 286.327 151.363 286.392L142.652 286.435L143.108 285.979L143.152 297.169L142.653 296.67C148.491 296.688 163.381 296.742 169.021 296.823L177.81 296.932L177.573 297.169L177.81 285.979ZM177.81 285.979L178.047 297.169L178.052 297.403L177.809 297.406C173.423 297.464 164.614 297.565 160.23 297.6L142.651 297.668L142.15 297.67L142.152 297.169L142.196 285.979L142.198 285.521L142.652 285.523L151.52 285.566C157.122 285.627 172.026 285.88 177.81 285.979Z" fill="#EBEBEB"/>
<path d="M158.198 271.869C152.359 271.967 137.387 272.217 131.751 272.282L123.04 272.325L123.496 271.869L123.54 283.059L123.041 282.56C128.879 282.578 143.768 282.632 149.409 282.713L158.198 282.822L157.961 283.059L158.198 271.869ZM158.198 271.869L158.435 283.059L158.44 283.293L158.197 283.296C153.811 283.354 145.003 283.455 140.618 283.49L123.039 283.558L122.538 283.56L122.54 283.059L122.584 271.869L122.586 271.411L123.04 271.413L131.908 271.456C137.51 271.518 152.414 271.77 158.198 271.869Z" fill="#EBEBEB"/>
<path d="M138.664 285.979H103.506V297.169H138.664V285.979Z" fill="#EBEBEB"/>
<path d="M456.84 44.9331H421.683V56.1231H456.84V44.9331Z" fill="#EBEBEB"/>
<path d="M437.229 390.484H402.071V401.674H437.229V390.484Z" fill="#EBEBEB"/>
<path d="M456.84 376.374C451.001 376.473 436.029 376.722 430.393 376.787L421.682 376.83L422.138 376.374L422.182 387.564L421.683 387.065C427.521 387.083 442.41 387.137 448.051 387.218L456.84 387.327L456.603 387.564L456.84 376.374ZM456.84 376.374L457.077 387.564L457.082 387.798L456.84 387.801C452.454 387.859 443.645 387.96 439.261 387.995L421.682 388.063L421.18 388.065L421.182 387.564L421.226 376.374L421.228 375.916L421.682 375.918L430.55 375.961C436.152 376.023 451.056 376.275 456.84 376.374Z" fill="#EBEBEB"/>
<path d="M97.9289 390.484C92.0899 390.582 77.1179 390.832 71.4819 390.897L62.7709 390.94L63.2269 390.484L63.2709 401.674L62.7719 401.175L80.3509 401.243C84.7279 401.278 93.5529 401.379 97.9299 401.437L97.6929 401.674L97.9289 390.484ZM97.9289 390.484L98.1659 401.674L98.1709 401.908L97.9279 401.911C93.5419 401.969 84.7329 402.07 80.3489 402.105L62.7699 402.173L62.2689 402.175L62.2709 401.674L62.3149 390.484L62.3169 390.026L62.7709 390.028L71.6389 390.071C77.2399 390.133 92.1449 390.385 97.9289 390.484Z" fill="#EBEBEB"/>
<path d="M202.068 120.151L200.248 133.153C199.465 138.746 194.676 142.36 189.075 141.576C183.881 140.849 179.869 136.004 180.652 130.411L183.563 109.609C183.59 109.414 183.794 109.442 183.822 109.239C183.646 109.015 183.646 109.015 183.674 108.812C184.402 103.61 189.646 99.6531 194.84 100.38C207.443 102.144 219.044 93.5741 220.779 81.1741C222.542 68.5791 213.713 57.349 201.109 55.585C192.91 54.437 185.097 57.835 180.372 63.897C176.907 68.31 170.683 69.0661 166.272 65.5921C162.063 62.1561 161.279 56.127 164.751 51.724C173.684 40.332 188.456 33.833 203.852 35.988C227.056 39.236 243.419 60.6931 240.172 83.8881C237.402 103.688 221.278 118.357 202.068 120.151ZM195.938 163.944L195.434 167.542C194.65 173.144 189.861 176.757 184.26 175.973C179.066 175.246 175.054 170.401 175.838 164.799L176.342 161.201C177.097 155.803 182.313 152.051 187.507 152.778C193.108 153.562 196.693 158.547 195.938 163.944Z" fill="#EBEBEB"/>
<path d="M105.186 182.393L108.104 192.99C109.359 197.549 106.878 201.916 102.313 203.173C98.0799 204.339 93.3879 201.947 92.1319 197.388L87.4629 180.434C87.4189 180.275 87.5849 180.229 87.5389 180.063C87.3289 179.949 87.3289 179.949 87.2839 179.783C86.1159 175.543 88.8329 170.762 93.0669 169.596C103.339 166.767 109.409 156.329 106.626 146.223C103.799 135.958 93.2849 130.258 83.0129 133.087C76.3309 134.927 71.4539 140.132 69.8349 146.36C68.6369 150.902 64.1049 153.549 59.5609 152.344C55.1849 151.101 52.5819 146.727 53.7879 142.191C56.8709 130.47 66.0669 120.57 78.6149 117.115C97.5269 111.907 117.226 122.966 122.432 141.871C126.876 158.01 119.355 174.637 105.186 182.393ZM115.014 218.086L115.822 221.019C117.079 225.584 114.598 229.951 110.033 231.208C105.8 232.374 101.108 229.982 99.8499 225.417L99.0419 222.484C97.8299 218.085 100.593 213.469 104.826 212.303C109.392 211.047 113.803 213.687 115.014 218.086Z" fill="#EBEBEB"/>
<path d="M156.919 230.093L156.489 238.229C156.304 241.729 153.536 244.219 150.031 244.034C146.781 243.862 144.041 241.081 144.226 237.581L144.914 224.564C144.921 224.442 145.048 224.449 145.055 224.321C144.934 224.192 144.934 224.192 144.941 224.065C145.113 220.809 148.144 218.083 151.394 218.255C159.281 218.672 165.995 212.753 166.405 204.994C166.822 197.112 160.763 190.641 152.876 190.224C147.746 189.953 143.096 192.471 140.499 196.472C138.593 199.385 134.785 200.185 131.872 198.274C129.086 196.375 128.279 192.689 130.191 189.781C135.105 182.26 143.891 177.452 153.526 177.962C168.046 178.73 179.31 191.122 178.542 205.637C177.886 218.025 168.701 227.957 156.919 230.093ZM155.47 257.497L155.351 259.749C155.166 263.254 152.398 265.744 148.893 265.559C145.643 265.387 142.903 262.606 143.088 259.101L143.207 256.849C143.386 253.471 146.41 250.872 149.66 251.044C153.165 251.229 155.649 254.12 155.47 257.497Z" fill="#DBDBDB"/>
<path d="M397.926 82.177H317.906V162.197H397.926V82.177Z" fill="white"/>
<path d="M313.744 78.015V166.358H402.087V78.015H313.744ZM397.925 162.196H317.905V82.177H397.925V162.196Z" fill="#DBDBDB"/>
<path d="M392.167 146.699V119.038L329.801 119.038V146.699H392.167Z" fill="#EBEBEB"/>
<path d="M373.895 138.164V106.209H341.939V138.164H373.895Z" fill="#C7C7C7"/>
<path d="M405.502 78.0131H402.091V166.36H405.502V78.0131Z" fill="#C7C7C7"/>
<path d="M439.282 199.767H359.262V279.787H439.282V199.767Z" fill="white"/>
<path d="M393.91 212.572H373.016V272.928H393.91V212.572Z" fill="#C7C7C7"/>
<path d="M355.101 195.605V283.948H443.444V195.605H355.101ZM439.282 279.786H359.262V199.766H439.282V279.786Z" fill="#DBDBDB"/>
<path d="M415.248 223.801H383.296V255.752H415.248V223.801Z" fill="#EBEBEB"/>
<path d="M446.859 195.604H443.448V283.951H446.859V195.604Z" fill="#C7C7C7"/>
<path d="M47.443 437.739L98.082 437.496L148.721 437.408L250 437.24L351.279 437.407L401.918 437.495L452.557 437.739L401.918 437.984L351.279 438.072L250 438.238L148.721 438.071L98.082 437.982L47.443 437.739Z" fill="#263238"/>
<path d="M287.779 243.222C338.244 295.946 401.068 406.195 388.715 428.168C374.955 452.641 304.689 378.739 305.027 374.49C305.283 371.279 281.179 304.522 262.864 255.957C244.565 207.438 275.3 230.184 287.779 243.222Z" fill="#D3766A"/>
<path d="M304.548 374.562C302.474 367.432 269.635 279.387 260.286 251.561C250.937 223.735 260.119 215.305 287.63 241.077C315.141 266.85 374.984 352.466 388.256 397.625C401.042 441.128 378.75 440.791 349.636 420.388C325.8 403.685 304.548 374.562 304.548 374.562Z" fill="#5F27FF"/>
<path d="M258.08 229.68C257.89 229.61 257.7 229.54 257.5 229.45C257.58 229.2 257.68 228.97 257.81 228.74C258.19 228.89 258.58 229.03 258.97 229.16C262.12 230.17 265.98 230.49 268.74 228.32C269.06 228.07 269.35 227.79 269.6 227.5C269.85 227.62 270.1 227.75 270.36 227.88C267.54 231.26 262.12 231.16 258.08 229.68ZM279.83 234.28C279.57 234.07 279.31 233.87 279.06 233.67C278.62 233.88 278.18 234.08 277.74 234.27C271.44 237.04 263.66 239.83 258.21 244.51C258.29 244.82 258.37 245.14 258.45 245.46C261.26 242.9 264.71 240.95 268.09 239.36C271.94 237.55 275.97 236.08 279.83 234.28ZM286.84 253.04C288.69 250.77 290.71 248.41 293 246.44C292.8 246.22 292.59 246.01 292.39 245.8C286.64 250.81 282.52 258.44 277.05 263.29C274.21 265.82 270.44 268.35 266.49 269.34C266.58 269.6 266.67 269.86 266.77 270.12C269.51 269.4 272.14 268 274.38 266.45C279.54 262.89 282.95 257.84 286.84 253.04ZM315.25 272.84C306.93 284.13 291.84 286.84 278.6 288.84C277 289.08 275.4 289.34 273.8 289.66C273.91 289.95 274.01 290.25 274.12 290.55C279.71 289.41 285.46 288.93 291.02 287.66C300.29 285.54 310 281.15 315.83 273.59C315.83 273.58 315.83 273.58 315.83 273.58C315.63 273.33 315.44 273.09 315.25 272.84ZM326.58 370.17C320.86 368.74 315.66 370.64 310.63 373.3C308.98 374.18 307.31 375.11 305.61 375.98C305.78 376.2 305.97 376.45 306.18 376.72C312.96 373.23 319.49 368.88 327.3 371.42C329.85 372.25 332.29 373.88 333.29 376.46C334.59 379.77 333.13 383.22 330.82 385.67C327.59 389.08 323.18 390.44 318.91 392.05C319.15 392.32 319.4 392.6 319.65 392.88C320.87 392.4 322.1 391.93 323.34 391.44C328.43 389.43 334.41 385.72 334.78 379.6C335.07 374.63 331.05 371.28 326.58 370.17ZM306.68 309.16C310.72 303.47 314.43 297.56 318.46 291.86C320.2 289.39 322.03 286.86 324.03 284.49C323.84 284.23 323.65 283.98 323.46 283.72C322.39 284.98 321.38 286.27 320.4 287.57C316.34 292.96 312.7 298.65 308.92 304.23C303.22 312.64 296.53 322.11 287.75 327.94C287.86 328.25 287.97 328.55 288.09 328.86C295.6 323.88 301.65 316.23 306.68 309.16ZM308.72 324.19C307.99 328.98 310.33 334.26 314.32 337C318.98 340.2 324.19 338.23 327.5 334.13C329.46 331.71 330.87 328.93 332.62 326.37C334.64 323.4 337.07 320.65 339.95 318.5C341.64 317.24 343.53 316.2 345.51 315.47C345.32 315.18 345.13 314.89 344.94 314.6C343.7 315.07 342.51 315.66 341.38 316.35C335.73 319.79 332.29 325.1 328.83 330.55C327.05 333.33 324.91 336.29 321.62 337.34C318.73 338.26 315.78 337.2 313.63 335.19C308.83 330.71 308.52 323.82 312.14 318.55C315.98 312.97 322.61 309.97 328.86 307.99C332.06 306.98 335.36 306.13 338.59 305.1C338.41 304.83 338.22 304.56 338.04 304.29C331.54 306.38 324.61 307.84 319.04 311.14C314.25 313.97 309.6 318.44 308.72 324.19ZM361.68 341.5C359.05 344.81 355.63 347.58 352.18 349.82C346.34 353.6 339.55 356.19 332.58 356.7C325.54 357.22 318.83 355.36 313.3 350.93C308.55 347.11 304.31 342.37 298 341.33C296.22 341.03 294.4 341 292.6 341.22C292.73 341.57 292.85 341.91 292.98 342.25C295.45 341.99 297.96 342.22 300.32 343.01C303.64 344.12 306.38 346.39 308.98 348.64C311.49 350.82 313.97 353.05 316.9 354.65C319.68 356.16 322.74 357.12 325.86 357.56C332.13 358.42 338.57 357.29 344.41 354.97C350.74 352.47 357.65 348.17 362.25 342.47C362.06 342.15 361.87 341.83 361.68 341.5ZM361.73 427.89C362.66 428.39 363.58 428.86 364.48 429.29C367.61 429.92 370.48 431.21 373.28 432.71C374.5 433.05 375.68 433.3 376.81 433.47C373.69 431.66 370.54 429.92 367.1 428.91C365.39 428.4 363.57 428.04 361.73 427.89ZM366.76 350.36C366.61 350.1 366.47 349.84 366.32 349.58C357.88 351.39 350 357.43 346.86 365.12C344.38 371.19 345.83 377.13 348.48 382.88C349.99 386.16 351.71 389.36 352.81 392.82C353.8 395.94 354.34 399.2 354.44 402.47C354.63 408.89 353.02 415.24 349.8 420.5C350.06 420.69 350.32 420.87 350.58 421.04C353.05 417.03 354.62 412.39 355.16 407.53C355.83 401.5 354.97 395.31 352.65 389.69C349.92 383.05 345.28 376.51 346.68 368.97C348.37 359.9 357.3 352.33 366.76 350.36ZM388.82 399.59C386.08 400.42 383.31 401.16 380.45 401.52C377.05 401.94 372.95 401.79 370.95 398.54C369.51 396.18 369.77 393.15 370.55 390.61C372.26 385.07 376.74 381.89 380.97 378.38C380.86 378.1 380.73 377.82 380.6 377.54C378.47 379.29 376.23 380.94 374.31 382.78C370.87 386.08 368.31 391.32 369.12 396.18C370.12 402.28 376.32 403.13 381.47 402.33C383.7 401.99 386.28 401.23 389.03 400.39C388.97 400.13 388.9 399.86 388.82 399.59Z" fill="white"/>
<path opacity="0.1" d="M349.637 420.394C325.805 403.685 304.551 374.557 304.551 374.557C302.479 367.435 269.633 279.392 260.291 251.557C256.837 241.273 255.909 233.642 257.508 229.411L349.637 420.394Z" fill="black"/>
<path d="M302.928 437.557H108.055C108.055 437.557 147.917 282.664 213.765 218.562C222.604 209.958 256.993 211.407 264.915 224.356C294.63 272.93 303.473 436.87 302.928 437.557Z" fill="#5F27FF"/>
<path d="M278.15 350.78C270.49 361.66 278.82 376.48 291.03 379.04C293.67 379.6 296.18 379.41 298.6 378.79C298.63 379.13 298.66 379.46 298.69 379.79C296.45 380.37 294.12 380.59 291.68 380.21C280.82 378.52 271.7 366.95 274.59 355.93C276.83 347.34 285.55 341.36 294.27 341.09C294.31 341.45 294.36 341.8 294.41 342.16C293.66 342.17 292.92 342.23 292.18 342.34C286.67 343.12 281.37 346.22 278.15 350.78ZM116.43 409.99C116.33 409.91 116.23 409.82 116.13 409.74C116.02 410.07 115.92 410.4 115.82 410.73C123.43 417.02 125 428.35 127.44 437.56H128.45C125.84 427.93 124.42 416.8 116.43 409.99ZM148.97 354.01C154.92 353.63 160.96 351.64 164.59 346.65C167.39 342.8 168.85 337.38 166.78 332.88C164.38 327.67 158.52 326.29 153.28 326.42C151.01 326.47 148.77 326.69 146.54 326.94C146.4 327.26 146.26 327.59 146.12 327.92C149.81 327.46 153.49 327.05 157.14 327.55C160.36 327.99 163.53 329.4 165.33 332.22C166.87 334.65 167.07 337.65 166.43 340.4C164.91 346.95 159.57 351.08 153.21 352.46C147.58 353.68 141.85 353.02 136.18 352.21C136.06 352.52 135.94 352.82 135.82 353.12C140.32 353.74 144.77 354.28 148.97 354.01ZM157.36 426.9C151.68 425.86 142.56 431.32 139.5 423.9C137.2 418.34 140.49 412.13 144.02 407.95C148.31 402.88 153.85 399.09 159.32 395.4C169.42 388.57 193.89 367.66 182.21 358.8C171.32 350.55 157.33 374.62 149.14 382.17C141.9 388.83 131.3 394.86 120.94 394.71C120.84 395.01 120.74 395.3 120.64 395.6C131.11 395.78 141.46 389.82 149.24 383.37C159.48 374.89 169.57 352.84 181.4 359.6C191.22 365.21 172.91 384.88 162.77 391.87C157.66 395.4 152.35 398.71 147.69 402.85C143.57 406.51 139.53 411.03 138.28 416.55C137.36 420.63 137.83 425.87 141.98 428.01C144.62 429.38 147.61 428.86 150.4 428.33C153.91 427.65 157.2 427.24 160.46 429.01C163.86 430.85 166.12 434.01 167.06 437.56H168.13C168.13 437.54 168.12 437.53 168.12 437.51C166.79 432.45 162.63 427.87 157.36 426.9ZM228.65 303.47C223.52 300.61 217.5 300.88 212.69 304.26C207.66 307.8 204.62 313.52 202.27 319.04C199.65 325.21 197.3 332.01 192.17 336.61C189.41 339.1 185.06 341.28 181.67 338.63C179.46 336.89 178.62 333.82 178.54 331.11C178.35 325.31 181.81 319.83 185.27 315.45C188.85 310.9 193.03 306.87 196.64 302.34C199.99 298.14 202.93 293.35 203.72 287.94C204.11 285.27 203.75 282.38 201.53 280.59C199.74 279.15 197.28 278.8 195.04 279.01C189.36 279.56 184.51 283.69 181.09 287.99C179.15 290.42 177.53 293.08 176.08 295.82C174.53 298.77 173.38 301.92 171.81 304.84C169.99 308.24 166.86 309.89 163.08 308.73C160.49 307.93 158.49 306.25 156.93 304.17C156.79 304.46 156.65 304.75 156.52 305.04C159.3 308.45 163.46 311.11 167.89 309.67C170.7 308.75 172.21 306.21 173.37 303.66C174.71 300.7 176.01 297.73 177.59 294.89C180.76 289.18 185.17 283.33 191.43 280.8C194.06 279.74 197.44 279.31 200.04 280.68C203.67 282.59 203.21 287.05 202.26 290.42C199.08 301.59 188.57 308.65 182.3 317.94C179.42 322.2 177.03 327.34 177.71 332.61C178.33 337.35 181.69 341.76 186.96 340.61C193.13 339.27 197.15 332.76 199.66 327.5C202.52 321.54 204.44 315.09 208.51 309.77C212.59 304.43 218.83 300.89 225.6 303.2C232.85 305.67 237 312.83 237.27 320.22C237.77 333.69 228.3 344.84 218.59 352.97C209.27 360.78 198.74 367.14 190.12 375.79C180.59 385.34 174.34 397.91 172.39 411.26C171.18 419.49 171.19 429.39 174.52 437.56H175.78C174.77 435.13 174.07 432.57 173.6 430.05C171.04 416.31 174.16 401.43 181.04 389.38C187.67 377.77 198.09 369.82 208.64 361.99C217.92 355.1 227.63 347.92 233.51 337.71C239.72 326.92 241.21 310.45 228.65 303.47ZM261.12 367.06C260.74 360.9 257.92 355.06 252.69 351.6C247.95 348.45 241.99 348.28 237.18 351.37C232.37 354.45 229.26 359.9 228.07 365.39C226.34 373.34 227.78 381.5 227.94 389.52C228.09 397.2 227.1 404.89 225.06 412.3C223.05 419.6 220 426.63 216.01 433.08C215.06 434.61 214.04 436.11 212.93 437.56H214.29C217.6 433.16 220.22 428.21 222.37 423.2C225.29 416.42 227.29 409.25 228.28 401.93C229.33 394.21 228.84 386.64 228.43 378.9C228.04 371.48 228.28 363.71 232.61 357.37C236.42 351.79 243.08 348.34 249.69 351.15C256.39 353.98 259.95 360.95 260.14 367.97C260.54 382.44 250.15 394.59 243.01 406.24C239.61 411.78 236.56 417.64 235.13 424.02C234.13 428.47 234 433.08 234.69 437.56H235.71C234.92 432.49 235.18 427.26 236.59 422.25C240.26 409.24 249.83 399.04 255.94 387.21C259.13 381.02 261.56 374.12 261.12 367.06ZM290.17 411.08C286.45 406.64 281.06 403.69 275.15 404.27C269.75 404.8 265.01 408.25 263.85 413.72C262.52 420.02 265.84 426.56 269.3 431.61C270.64 433.57 272.16 435.54 273.61 437.56H274.74C272.02 433.66 268.97 429.96 266.9 425.65C263.9 419.41 262.93 410.85 269.9 406.84C275.81 403.43 283.09 405.41 287.8 409.89C292.9 414.75 295.29 421.69 296.71 428.42C297.34 431.39 297.82 434.46 298.3 437.56H299.25C297.84 428.1 296.42 418.53 290.17 411.08ZM228.7 213.41C228.15 213.46 227.61 213.52 227.08 213.59C224.82 216.28 222.1 218.6 219.26 220.54C215.22 223.29 210.79 225.26 206.14 226.5C205.74 226.96 205.33 227.41 204.92 227.88C206.05 227.65 207.17 227.36 208.27 227.01C215.6 224.69 223.62 219.94 228.7 213.41ZM230.1 241.14C228.84 238.78 228.65 235.99 229.23 233.4C230.35 228.32 234.41 223.42 239.73 222.55C246.62 221.43 252.06 227.49 258.08 229.68C261.14 230.8 264.98 231.13 267.9 229.76C267.79 229.52 267.67 229.29 267.56 229.07C264.95 230.39 261.69 230.03 258.97 229.16C252.85 227.2 247.93 221.53 241.16 221.61C232.11 221.73 225.26 233.18 229.2 241.25C230.57 244.05 233.15 245.95 235.45 247.95C237.79 249.98 239.7 252.28 240.96 255.13C243.22 260.29 243.42 266.51 241.13 271.69C238.85 276.85 234.15 280.45 228.43 280.61C223.28 280.75 217.86 278.4 214.67 274.3C213.11 272.3 212.14 269.88 212.08 267.33C211.99 263.91 213.28 260.59 214.13 257.33C215.4 252.48 215.59 246.12 210.04 243.9C205.59 242.11 200.32 244.34 196.84 247.17C192.19 250.94 190.31 256.89 187.71 262.07C184.93 267.6 180.87 272.85 174.26 273.45C173.84 273.49 173.43 273.51 173.02 273.51C172.84 273.83 172.66 274.16 172.47 274.48C172.56 274.49 172.64 274.49 172.73 274.49C178.07 274.54 182.53 271.76 185.62 267.51C189.26 262.49 190.82 256.31 194.34 251.21C197.33 246.88 203.77 242.88 209.19 244.59C217.08 247.08 213.12 256.84 211.82 262.3C210.64 267.23 211.19 271.88 214.68 275.74C221.11 282.83 233.25 283.77 239.53 276.04C245.97 268.1 244.59 255.34 237.28 248.43C234.83 246.11 231.73 244.21 230.1 241.14ZM258.83 269.93C264.14 271.92 270 269.48 274.38 266.45C276.29 265.13 277.95 263.62 279.5 261.98C279.42 261.69 279.34 261.4 279.26 261.12C278.55 261.88 277.81 262.61 277.05 263.29C272.44 267.38 265.42 271.49 259.1 269.09C252.59 266.62 251.21 259.02 253.27 253.05C255.59 246.32 261.96 242.24 268.09 239.36C269.23 238.83 270.38 238.32 271.54 237.83C271.45 237.57 271.34 237.32 271.23 237.06C261.85 241.13 252.03 246.4 251.46 257.64C251.2 262.88 253.74 268.02 258.83 269.93ZM291.98 324.75C287.9 328.22 283.33 330.97 278.14 332.4C270.99 334.38 263.74 332.66 259.2 326.57C257.19 323.88 255.83 320.76 254.84 317.58C253.61 313.61 252.72 309.27 253.81 305.16C255.63 298.26 262.25 293.94 268.69 291.92C274.21 290.18 280.01 289.6 285.73 288.67C285.66 288.35 285.6 288.03 285.54 287.71C283.2 288.13 280.87 288.5 278.6 288.84C271.85 289.86 264.92 291.24 259.42 295.54C254.3 299.55 251.7 305.28 252.53 311.79C253.32 317.97 255.79 324.75 260.22 329.25C264.64 333.74 270.85 334.98 276.89 333.7C282.62 332.48 287.66 329.58 292.14 325.83C292.08 325.47 292.03 325.11 291.98 324.75Z" fill="white"/>
<path d="M386.901 427.092C372.931 441.59 344.959 442.88 265.192 445.811C254.154 446.217 230.336 369.09 242.101 368.052C256.92 366.744 314.71 364.876 318.954 365.273C354.744 368.622 396.378 417.258 386.901 427.092Z" fill="#D3766A"/>
<path d="M267.766 369.913C267.766 369.913 236.339 362.925 218.692 364.364C195.061 366.291 175.453 377.685 167.524 382.955C150.973 393.957 118.562 432.001 127.89 443.247C136.335 453.428 167.5 412.867 167.5 412.867C167.5 412.867 128.9 448.979 141.321 459.368C153.743 469.756 187.242 420.614 187.242 420.614C187.242 420.614 148.414 458.607 162.918 467.294C173.879 473.859 206.727 431.058 206.727 431.058C206.727 431.058 173.579 463.945 184.561 471.182C196.696 479.179 229.496 441.574 229.496 441.574C260.506 455.271 280.874 449.107 294.842 442.997C298.224 441.519 267.766 369.913 267.766 369.913Z" fill="#D3766A"/>
<path d="M180.051 399.523C175.363 403.601 170.591 407.697 166.282 412.177C161.973 416.658 157.816 421.292 153.944 426.153C144.445 438.077 140.363 447.029 140.675 446.504C148.064 434.077 163.241 417.798 167.552 413.316C171.852 408.845 175.928 404.157 180.227 399.681C180.336 399.568 180.162 399.426 180.051 399.523Z" fill="#263238"/>
<path d="M196.512 414.788C190.752 420.254 184.833 425.469 179.312 431.192C173.819 436.886 169.105 442.77 164.018 448.827C163.626 449.294 164.006 449.351 164.418 448.898C169.743 443.049 175.117 438.052 180.51 432.265C185.885 426.499 191.075 420.48 196.654 414.915C196.741 414.828 196.6 414.706 196.512 414.788Z" fill="#263238"/>
<path d="M212.997 425.35C203.766 433.252 196.004 442.849 188.616 452.444C188.248 452.922 188.746 452.941 189.151 452.475C197.086 443.315 203.246 436.074 213.274 425.67C213.429 425.509 213.191 425.184 212.997 425.35Z" fill="#263238"/>
<path d="M251.296 365.887L307.159 452.089C307.159 452.089 376.144 445.73 389.022 429.745C397.499 419.224 355.268 365.808 315.44 365.116L251.296 365.887Z" fill="#5F27FF"/>
<path d="M261.12 367.06C261.37 370.99 260.72 374.88 259.55 378.62L258.88 377.58C259.76 374.48 260.23 371.29 260.14 367.97C260.12 367.24 260.06 366.5 259.96 365.78L261 365.77C261.05 366.2 261.09 366.63 261.12 367.06ZM276.13 404.21L276.73 405.13C280.79 405.21 284.81 407.04 287.8 409.89C292.9 414.75 295.29 421.69 296.71 428.42C297.42 431.75 297.93 435.2 298.46 438.67L299.7 440.59C298.09 430.18 297.09 419.33 290.17 411.08C286.66 406.89 281.66 404.02 276.13 404.21ZM352.65 389.69C350.69 384.9 347.72 380.17 346.74 375.07C346.43 374.88 346.12 374.7 345.81 374.52C346.22 377.34 347.22 380.13 348.48 382.88C349.99 386.16 351.71 389.36 352.81 392.82C353.8 395.94 354.34 399.2 354.44 402.47C354.84 415.64 347.63 428.55 334.49 432.25C322.67 435.58 309.26 430.47 305.95 417.94C304.56 412.69 305.01 406.82 307.61 402.01C310.96 395.8 317.16 393.89 323.34 391.44C328.43 389.43 334.41 385.72 334.78 379.6C335.07 374.63 331.05 371.28 326.58 370.17C320.86 368.74 315.66 370.64 310.63 373.3C304.52 376.53 298.25 380.56 291.03 379.04C284.02 377.57 278.29 372.07 276.13 365.59L274.92 365.6C277.26 372.94 284.04 379.02 291.68 380.21C304.72 382.24 314.23 367.17 327.3 371.42C329.85 372.25 332.29 373.88 333.29 376.46C334.59 379.77 333.13 383.22 330.82 385.67C325.76 391.01 317.82 391.31 312.02 395.48C303.79 401.4 302.3 413.43 306.48 422.2C311.41 432.55 323.77 436.07 334.31 433.28C346.24 430.12 353.84 419.52 355.16 407.53C355.83 401.5 354.97 395.31 352.65 389.69ZM378.21 402.58C377.97 402.28 377.72 401.98 377.48 401.68C374.91 401.61 372.39 400.88 370.95 398.54C370.01 397 369.79 395.17 369.98 393.37C369.69 393.08 369.4 392.79 369.11 392.5C368.93 393.72 368.92 394.96 369.12 396.18C369.91 401.03 373.99 402.55 378.21 402.58ZM367.1 428.91C362.38 427.51 356.84 427.26 352.28 429.37C347.42 431.61 345.36 436.39 346.03 441.59C346.23 443.14 346.6 444.66 346.98 446.17C347.26 446.12 347.54 446.06 347.82 446.01C346.8 441.91 345.99 437.82 348.22 434.09C351.1 429.29 357.52 428.39 362.61 428.98C368.99 429.72 374.28 433.3 379.76 436.35C380.13 436.17 380.49 435.98 380.85 435.8C376.36 433.29 372.03 430.36 367.1 428.91Z" fill="white"/>
<path d="M360.125 384.537C340.08 368.205 333.302 365.38 301.74 364.985C301.484 364.982 301.431 365.315 301.692 365.327C336.3 366.894 352.278 379.683 359.896 384.789C360.096 384.923 360.307 384.685 360.125 384.537Z" fill="#263238"/>
<path d="M327.692 442.377C322.056 432.57 315.904 423.074 309.725 413.595C303.541 404.109 297.376 394.608 290.956 385.277C287.329 380.005 283.731 374.708 279.921 369.563C279.821 369.428 279.571 369.561 279.659 369.713C285.281 379.506 291.401 389.039 297.507 398.543C303.627 408.07 309.853 417.541 316.163 426.947C319.728 432.262 323.39 437.513 327.198 442.661C327.386 442.915 327.857 442.665 327.692 442.377Z" fill="#263238"/>
<path opacity="0.1" d="M321.745 365.643L321.732 365.653L275.761 403.638L251.295 365.889L315.447 365.111C316.204 365.124 316.958 365.16 317.721 365.209L321.313 365.599L321.745 365.643Z" fill="black"/>
<path d="M190.253 271.84C182.061 364.3 194.858 437.955 233.676 443.255C259.459 446.776 253.002 368.596 252.942 366.926C252.738 361.207 249.765 313.496 231.489 261.601C211.383 204.512 193.913 230.534 190.253 271.84Z" fill="#D3766A"/>
<path d="M190.253 271.84C182.061 364.3 194.858 437.955 233.676 443.255C259.459 446.776 263.065 380.848 263.006 379.178C262.802 373.459 249.766 313.496 231.49 261.601C211.383 204.512 193.913 230.534 190.253 271.84Z" fill="#5F27FF"/>
<path d="M233.731 268.177C239.377 285.594 244.519 303.164 249.508 320.779C254.263 338.447 259.329 356.1 262.313 374.174C255.544 343.131 242.163 299.268 233.731 268.177Z" fill="#263238"/>
<path d="M238.509 272.499C239.792 277.456 240.751 282.828 239.571 287.888C239.722 282.815 238.778 277.562 238.509 272.499Z" fill="#263238"/>
<path d="M194.34 251.21C193.89 251.86 193.48 252.52 193.08 253.2C193.29 252.27 193.51 251.36 193.74 250.47C194.63 249.26 195.64 248.14 196.84 247.17C200.32 244.34 205.59 242.11 210.04 243.9C215.59 246.12 215.4 252.48 214.13 257.33C213.28 260.59 211.99 263.91 212.08 267.33C212.14 269.88 213.11 272.3 214.67 274.3C217.86 278.4 223.28 280.75 228.43 280.61C231.63 280.52 234.52 279.35 236.83 277.43C236.94 277.74 237.04 278.05 237.14 278.37C230.53 283.47 220.37 282.01 214.68 275.74C211.19 271.88 210.64 267.23 211.82 262.3C213.12 256.84 217.08 247.08 209.19 244.59C203.77 242.88 197.33 246.88 194.34 251.21ZM203.72 287.94C204.11 285.27 203.75 282.38 201.53 280.59C199.74 279.15 197.28 278.8 195.04 279.01C193.1 279.19 191.26 279.8 189.53 280.7C189.5 281.05 189.47 281.4 189.45 281.75C190.09 281.39 190.75 281.07 191.43 280.8C194.06 279.74 197.44 279.31 200.04 280.68C203.67 282.59 203.21 287.05 202.26 290.42C199.93 298.6 193.67 304.58 188.03 310.84C188.01 311.29 188 311.74 188 312.18C190.87 308.89 193.92 305.76 196.64 302.34C199.99 298.14 202.93 293.35 203.72 287.94ZM233.51 337.71C239.72 326.92 241.21 310.45 228.65 303.47C223.52 300.61 217.5 300.88 212.69 304.26C207.66 307.8 204.62 313.52 202.27 319.04C199.65 325.21 197.3 332.01 192.17 336.61C191.05 337.62 189.67 338.58 188.2 339.18C188.22 339.54 188.23 339.89 188.25 340.24C193.7 338.34 197.33 332.38 199.66 327.5C202.52 321.54 204.44 315.09 208.51 309.77C212.59 304.43 218.83 300.89 225.6 303.2C232.85 305.67 237 312.83 237.27 320.22C237.77 333.69 228.3 344.84 218.59 352.97C209.72 360.4 199.76 366.52 191.39 374.55C191.46 375.02 191.53 375.49 191.61 375.95C196.81 370.84 202.71 366.39 208.64 361.99C217.92 355.1 227.63 347.92 233.51 337.71ZM255.94 387.21C258.9 381.46 261.21 375.1 261.17 368.57C261.17 368.06 261.15 367.57 261.12 367.06C260.95 364.3 260.29 361.61 259.14 359.17C257.73 356.15 255.58 353.51 252.69 351.6C247.95 348.45 241.99 348.28 237.18 351.37C232.37 354.45 229.26 359.9 228.07 365.39C226.34 373.34 227.78 381.5 227.94 389.52C228.09 397.2 227.1 404.89 225.06 412.3C223.05 419.6 220 426.63 216.01 433.08C215.79 433.44 215.56 433.79 215.33 434.15C215.6 434.41 215.88 434.66 216.16 434.91C218.61 431.22 220.64 427.23 222.37 423.2C225.29 416.42 227.29 409.25 228.28 401.93C229.33 394.21 228.84 386.64 228.43 378.9C228.04 371.48 228.28 363.71 232.61 357.37C236.42 351.79 243.08 348.34 249.69 351.15C256.39 353.98 259.95 360.95 260.14 367.97C260.54 382.44 250.15 394.59 243.01 406.24C239.61 411.78 236.56 417.64 235.13 424.02C233.77 430.06 234.02 436.38 235.74 442.31C235.84 442.67 235.96 443.03 236.07 443.39C236.41 443.38 236.75 443.36 237.08 443.32C234.89 436.56 234.64 429.18 236.59 422.25C240.26 409.24 249.83 399.04 255.94 387.21Z" fill="white"/>
<path d="M188.487 284.519C188.376 307.089 188.956 329.686 190.83 352.175C193.203 380.299 199.811 439.601 235.812 442.399C241.454 442.742 246.648 441.642 251.207 438.112C258.038 433.22 263.751 426.935 269.228 420.573C280.1 407.726 289.96 393.48 299.101 379.632L296.909 377.404L299.178 379.553L299.209 379.583C296.326 384.459 293.277 389.235 290.171 393.973C281.022 407.622 259.911 438.995 244.398 443.46C225.401 447.668 211.119 434.622 203.444 418.517C186.461 382.586 187.479 324.341 188.487 284.519Z" fill="#263238"/>
<path d="M186.627 290.113C187.112 294.391 187.808 298.522 188.272 302.804C186.798 298.778 186.077 294.386 186.627 290.113Z" fill="#263238"/>
<path d="M254.477 267.998C254.477 267.998 221.208 237.561 200.358 238.977L183.17 255.295C183.17 255.295 177.417 257.397 175.495 253.771C170.742 244.805 169.117 222.789 187.6 207.846C204.526 194.163 240.26 195.649 264.19 201.107C287.17 206.348 300.171 219.339 293.678 234.431C287.186 249.523 254.477 267.998 254.477 267.998Z" fill="#5F27FF"/>
<path opacity="0.1" d="M256.528 260.937C256.528 260.937 282.033 241.413 284.361 230.245C286.689 219.077 264.19 209.262 249.748 205.599C227.396 199.93 212.368 201.855 200.358 214.085C188.349 226.316 256.528 260.937 256.528 260.937Z" fill="black"/>
<path d="M260.212 257.218C248.289 258.719 230.238 238.808 223.901 223.563C223.473 222.516 226.103 212.272 228.71 199.674C230.263 192.023 231.81 183.467 232.659 175.557C232.825 173.932 280.973 192.932 280.973 192.932C280.973 192.932 274.317 208.989 272.922 222.787C272.818 223.942 272.817 225.026 272.915 226.069C272.916 226.22 272.94 226.405 272.929 226.614C273.272 232.889 271.734 255.759 260.212 257.218Z" fill="#D3766A"/>
<path d="M267.807 226.334C269.659 226.577 271.35 226.676 272.925 226.611C272.934 226.4 272.914 226.225 272.912 226.063C272.811 225.025 272.817 223.942 272.929 222.783C274.325 208.996 280.97 192.937 280.97 192.937C280.97 192.937 241.891 177.511 234.026 175.64C234.576 184.943 238.619 222.546 267.807 226.334Z" fill="#263238"/>
<path d="M216.879 135.751C215.628 154.205 236.305 201.865 251.141 210.112C272.65 222.07 302.096 216.842 310.798 192.306C319.234 168.522 291.19 106.888 275.155 99.986C251.537 89.821 218.726 108.492 216.879 135.751Z" fill="#D3766A"/>
<path d="M272.478 155.654C272.401 155.543 272.292 155.914 272.353 156.044C273.832 159.217 274.991 163.101 272.538 165.414C272.462 165.485 272.541 165.643 272.642 165.582C275.979 163.563 274.388 158.423 272.478 155.654Z" fill="#263238"/>
<path d="M268.167 153.524C262.825 155.346 266.862 165.896 271.811 164.208C276.682 162.548 272.645 151.997 268.167 153.524Z" fill="#263238"/>
<path d="M292.356 147.546C292.333 147.412 292.671 147.603 292.718 147.738C293.865 151.045 295.734 154.64 299.106 154.595C299.211 154.594 299.265 154.762 299.149 154.788C295.347 155.661 292.912 150.863 292.356 147.546Z" fill="#263238"/>
<path d="M293.969 143.016C299.073 140.606 303.517 150.991 298.789 153.223C294.136 155.421 289.69 145.036 293.969 143.016Z" fill="#263238"/>
<path d="M263.631 153.941C265.146 153.47 266.464 152.782 267.915 152.161C269.551 151.46 270.926 151.071 271.938 149.514C272.48 148.679 272.157 147.251 271.395 146.648C269.621 145.243 267.404 145.604 265.4 146.367C263.226 147.195 261.762 148.389 260.601 150.401C259.475 152.351 261.633 154.561 263.631 153.941Z" fill="#263238"/>
<path d="M294.236 134.27C292.682 134.591 291.196 134.628 289.627 134.786C287.856 134.965 286.465 135.289 284.826 134.416C283.946 133.948 283.539 132.543 283.913 131.645C284.785 129.558 286.899 128.8 289.022 128.497C291.325 128.169 293.185 128.506 295.175 129.704C297.103 130.867 296.285 133.846 294.236 134.27Z" fill="#263238"/>
<path d="M280.897 185.98C281.973 186.446 283.157 187.2 284.381 186.846C285.555 186.506 286.692 185.483 287.58 184.68C287.668 184.601 287.814 184.67 287.786 184.794C287.417 186.373 285.933 187.841 284.316 188.155C282.738 188.463 281.517 187.464 280.64 186.248C280.517 186.078 280.74 185.913 280.897 185.98Z" fill="#263238"/>
<path d="M282.915 180.829C286.422 177.578 291.955 176.042 295.488 175.152C295.843 174.95 295.897 174.074 295.821 173.694L295.811 173.67C295.763 173.552 292.92 166.846 292.92 166.846C294.005 166.948 299.445 167.232 298.868 165.961C294.048 155.458 288.69 143.779 281.676 134.344C281.46 134.021 280.949 134.313 281.118 134.656C285.35 144.934 291.362 154.398 295.777 164.654C294.08 164.666 291.267 164.563 289.977 165.094C289.663 165.333 293.407 172.161 293.721 173.322C293.721 173.322 286.36 173.907 282.31 179.424C281.259 180.857 281.243 182.379 282.915 180.829Z" fill="#263238"/>
<path d="M227.512 180.982C235.568 180.243 237.878 167.036 238.02 161.782C238.162 156.527 230.779 136.945 231.736 128.786C232.693 120.627 240.268 115.255 246.939 114.752C253.61 114.249 264.358 119.193 268.631 117.106C272.904 115.019 270.328 105.034 273.41 103.863C280.193 101.286 289.427 115.255 293.471 122.228C293.471 122.228 284.721 88.2711 248.739 98.1791C215.926 107.214 214.023 133.006 214.885 143.607C216.538 163.916 227.512 180.982 227.512 180.982Z" fill="#263238"/>
<path d="M275.68 177.228C269.301 179.066 262.227 176.437 258.72 170.45C254.574 163.368 256.96 154.237 264.039 150.091C271.12 145.943 280.25 148.329 284.397 155.408C288.541 162.486 286.156 171.619 279.078 175.767C277.985 176.407 276.845 176.892 275.68 177.228ZM267.989 150.542C266.981 150.832 265.991 151.252 265.046 151.806C258.913 155.397 256.848 163.309 260.437 169.444C264.031 175.574 271.947 177.647 278.073 174.051C284.206 170.458 286.272 162.547 282.682 156.413C279.643 151.229 273.517 148.949 267.989 150.542Z" fill="#EBEBEB"/>
<path d="M307.094 163.845C301.623 165.421 295.046 161.248 292.04 154.091C290.523 150.479 290.122 146.64 290.913 143.283C291.726 139.81 293.71 137.253 296.494 136.084C299.287 134.905 302.492 135.29 305.543 137.14C308.492 138.929 310.951 141.903 312.466 145.514C315.64 153.078 313.643 161.156 308.014 163.521C307.71 163.647 307.405 163.755 307.094 163.845ZM297.977 137.667C297.736 137.737 297.498 137.82 297.265 137.918C295.084 138.833 293.515 140.9 292.847 143.737C292.156 146.689 292.519 150.092 293.872 153.32C296.625 159.872 302.608 163.637 307.243 161.685C311.863 159.746 313.382 152.836 310.634 146.284C309.279 143.056 307.104 140.413 304.51 138.839C302.285 137.49 299.996 137.085 297.977 137.667Z" fill="#EBEBEB"/>
<path d="M284.604 157.19L282.834 156.279C284.181 153.659 288.007 149.289 292.861 151.468L292.046 153.282C287.701 151.324 284.729 156.952 284.604 157.19Z" fill="#EBEBEB"/>
<path d="M224.96 186.38L222.977 186.222C223.053 185.297 223.809 177.119 227.625 174.735C231.197 172.517 256.749 164.5 257.834 164.161L258.427 166.06C251.099 168.351 231.434 174.701 228.68 176.423C226.16 177.996 225.141 184.144 224.96 186.38Z" fill="#EBEBEB"/>
<path d="M240.225 174.749C240.225 174.749 224.959 161.574 218.704 167.414C212.449 173.253 226.767 194.335 236.106 195.345C245.445 196.355 246.549 187.728 246.549 187.728L240.225 174.749Z" fill="#D3766A"/>
<path d="M222.958 173.355C222.818 173.378 222.84 173.577 222.971 173.595C229.569 174.499 234.128 179.248 237.794 184.44C235.453 182.678 232.722 182.08 230.293 184.95C230.166 185.1 230.377 185.307 230.536 185.228C232.854 184.081 234.73 184.057 236.884 185.6C238.409 186.692 239.656 188.247 240.903 189.638C241.319 190.102 242.212 189.57 241.852 189.006C241.825 188.964 241.796 188.922 241.768 188.879C239.983 181.214 231.343 172.043 222.958 173.355Z" fill="#263238"/>
<path d="M256.528 260.937C256.528 260.937 229.235 218.079 196.835 214.834L200.358 238.976C200.358 238.976 219.603 238.379 254.477 267.997L256.528 260.937Z" fill="#5F27FF"/>
<path d="M191.677 239.711C197.558 238.78 203.468 239.892 209.067 241.453C214.703 243.038 220.051 245.496 225.169 248.318C230.331 251.072 235.177 254.392 239.939 257.808L246.871 263.241L253.559 268.995L254.309 269.641L255.108 269.198C261.063 265.893 266.718 262.199 272.143 258.136C274.842 256.095 277.515 254.008 279.956 251.652C282.408 249.32 284.778 246.878 286.727 244.121C282.112 249.042 276.639 252.931 271.11 256.67C268.332 258.527 265.47 260.259 262.581 261.936C259.695 263.607 256.786 265.291 253.847 266.801L255.395 267.003L248.692 261.056C246.38 259.162 244.018 257.321 241.651 255.491C239.18 253.797 236.743 252.051 234.21 250.448C231.618 248.933 229.083 247.328 226.356 246.05C221.035 243.27 215.33 241.193 209.472 239.855C208.016 239.493 206.517 239.29 205.039 239.045C203.541 238.908 202.048 238.732 200.547 238.715C197.562 238.61 194.518 238.808 191.677 239.711Z" fill="#263238"/>
<path d="M183.17 255.295C186.424 252.986 189.379 250.361 192.264 247.662C195.111 244.924 197.886 242.109 200.358 238.976C197.101 241.283 194.147 243.907 191.264 246.608C188.419 249.35 185.645 252.165 183.17 255.295Z" fill="#263238"/>
<path d="M244.178 252.4C244.178 252.4 242.582 265.072 243.763 283.101C244.23 290.237 249.188 315.55 257.026 313.941C264.863 312.331 250.536 296.959 247.103 283.68C243.618 270.199 246.415 260.219 246.195 252.109L244.178 252.4Z" fill="#5F27FF"/>
<g opacity="0.1">
<path d="M244.178 252.4C244.178 252.4 242.582 265.072 243.763 283.101C244.23 290.237 249.188 315.55 257.026 313.941C264.863 312.331 250.536 296.959 247.103 283.68C243.618 270.199 246.415 260.219 246.195 252.109L244.178 252.4Z" fill="black"/>
</g>
<path d="M270.918 253.668C270.918 253.668 275.561 264.279 279.164 280.263C280.59 286.59 282.78 309.879 275.55 310.491C268.32 311.104 276.833 294.055 276.408 281.624C275.977 269.004 270.981 261.043 269.089 253.933L270.918 253.668Z" fill="#5F27FF"/>
<g opacity="0.1">
<path d="M270.918 253.668C270.918 253.668 275.561 264.279 279.164 280.263C280.59 286.59 282.78 309.879 275.55 310.491C268.32 311.104 276.833 294.055 276.408 281.624C275.977 269.004 270.981 261.043 269.089 253.933L270.918 253.668Z" fill="black"/>
</g>
<path d="M240.905 437.654C262.177 434.379 297.046 386.441 319.153 331.631C323.361 321.198 242.377 279.033 239.175 290.627C228.897 327.841 208.77 376.509 209.418 406.533C209.922 429.885 226.193 439.919 240.905 437.654Z" fill="#D3766A"/>
<path d="M278.782 251.16C273.617 244.835 272.832 227.164 268.203 216.742C263.574 206.32 250.032 201.429 247.608 205.265C245.183 209.102 248.765 212.953 249.868 230.073C250.578 241.083 242.154 263.081 245.752 283.06C247.559 293.1 283.947 257.484 278.782 251.16Z" fill="#F7A9A0"/>
<path d="M278.782 251.16C273.617 244.835 272.832 227.164 268.203 216.742C263.574 206.32 250.032 201.429 247.608 205.265C245.183 209.102 248.765 212.953 249.868 230.073C250.578 241.083 242.154 263.081 245.752 283.06C247.559 293.1 283.947 257.484 278.782 251.16Z" fill="#D3766A"/>
<path opacity="0.06" d="M278.782 251.16C273.617 244.835 272.832 227.164 268.203 216.742C263.574 206.32 250.032 201.429 247.608 205.265C245.183 209.102 248.765 212.953 249.868 230.073C250.578 241.083 242.154 263.081 245.752 283.06C247.559 293.1 283.947 257.484 278.782 251.16Z" fill="black"/>
<path d="M319.034 197.387C326.259 204.131 308.12 220.536 308.12 220.536C308.12 220.536 314.713 218.76 320.442 221.956C327.003 225.615 324.142 237.508 324.142 237.508C324.142 237.508 331.188 237.092 336.9 241.076C342.828 245.21 341.651 257.622 341.651 257.622C341.651 257.622 348.426 260.84 350.893 267.825C355.11 279.767 341.912 294.102 335.495 304.59C328.62 315.824 320.002 329.766 315.06 336.677L237.613 297.28C237.613 297.28 250.881 238.047 261.392 227.911C270.247 219.37 307.991 187.079 319.034 197.387Z" fill="#D3766A"/>
<path d="M307.776 220.492C296.183 227.312 286.244 236.892 276.755 246.243C276.544 246.451 276.873 246.779 277.082 246.568C286.411 237.159 298.481 230.018 308.165 221C308.433 220.751 308.088 220.308 307.776 220.492Z" fill="#263238"/>
<path d="M323.168 237.079C320.592 238.701 318.559 241.167 316.517 243.39C314.319 245.784 312.165 248.215 310.047 250.68C305.807 255.614 301.678 260.645 297.702 265.794C297.525 266.022 297.831 266.349 298.029 266.119C302.263 261.209 306.572 256.363 311.008 251.635C313.228 249.269 315.47 246.923 317.726 244.59C319.825 242.421 322.22 240.307 323.797 237.708C324.03 237.325 323.556 236.834 323.168 237.079Z" fill="#263238"/>
<path d="M341.466 257.823C339.17 259.142 337.442 261.808 335.781 263.824C333.896 266.112 331.998 268.39 330.088 270.657C326.268 275.191 322.446 279.722 318.47 284.12C318.272 284.339 318.596 284.665 318.797 284.445C322.86 279.998 326.982 275.606 331.005 271.122C332.981 268.92 334.945 266.708 336.895 264.485C338.554 262.595 340.842 260.421 341.702 258.006C341.749 257.871 341.58 257.756 341.466 257.823Z" fill="#263238"/>
<path d="M310.386 195.378C297.239 200.823 281.476 212.395 272.244 219.56C268.831 222.28 265.429 225.048 262.329 228.104C259.271 231.172 257.275 235.088 255.327 238.953C254.005 241.563 252.871 244.268 251.755 246.99C253.752 239.987 256.154 232.554 261.131 226.963C264.185 223.717 267.619 220.88 271.066 218.087C280.374 210.94 289.91 203.694 300.733 199.023L310.386 195.378Z" fill="#263238"/>
<path d="M222.49 312.264L299.139 379.591C299.139 379.591 259.06 444.37 240.374 443.097C221.689 441.824 201.408 429.731 202.895 384.803C203.268 373.55 222.49 312.264 222.49 312.264Z" fill="#5F27FF"/>
<path d="M208.64 361.99C208.32 362.23 208 362.46 207.68 362.71C207.82 362.17 207.97 361.63 208.11 361.08C211.66 358.45 215.21 355.81 218.59 352.97C227.12 345.83 235.47 336.35 237.02 325.02L237.78 325.69C237.1 329.95 235.56 334.14 233.51 337.71C227.63 347.92 217.92 355.1 208.64 361.99ZM252.69 351.6C247.95 348.45 241.99 348.28 237.18 351.37C232.37 354.45 229.26 359.9 228.07 365.39C226.34 373.34 227.78 381.5 227.94 389.52C228.09 397.2 227.1 404.89 225.06 412.3C223.09 419.46 220.12 426.36 216.23 432.71C216.5 432.99 216.78 433.26 217.06 433.52C219.11 430.22 220.85 426.73 222.37 423.2C225.29 416.42 227.29 409.25 228.28 401.93C229.33 394.21 228.84 386.64 228.43 378.9C228.04 371.48 228.28 363.71 232.61 357.37C236.42 351.79 243.08 348.34 249.69 351.15C256.39 353.98 259.95 360.95 260.14 367.97C260.54 382.44 250.15 394.59 243.01 406.24C239.61 411.78 236.56 417.64 235.13 424.02C233.77 430.06 234.02 436.38 235.74 442.31C235.76 442.39 235.79 442.48 235.82 442.56C236.17 442.62 236.53 442.68 236.89 442.73C234.88 436.14 234.69 428.98 236.59 422.25C240.26 409.24 249.83 399.04 255.94 387.21C259.13 381.02 261.56 374.12 261.12 367.06C260.74 360.9 257.92 355.06 252.69 351.6ZM275.15 404.27C269.75 404.8 265.01 408.25 263.85 413.72C263.03 417.62 263.99 421.62 265.66 425.29C265.89 425.02 266.14 424.75 266.38 424.48C263.81 418.38 263.36 410.6 269.9 406.84C273.46 404.79 277.52 404.69 281.21 405.92C281.41 405.65 281.6 405.38 281.81 405.11C279.72 404.36 277.47 404.04 275.15 404.27ZM298.31 378.86C295.98 379.42 293.56 379.57 291.03 379.04C281.59 377.06 274.47 367.76 275.26 358.62L274.23 357.71C272.68 368.16 281.4 378.61 291.68 380.21C294.27 380.61 296.72 380.34 299.09 379.68C299.12 379.62 299.14 379.59 299.14 379.59L298.31 378.86Z" fill="white"/>
<path d="M221.639 340.108C225.389 343.237 228.894 346.698 232.453 350.04C236.017 353.388 239.549 356.771 243.036 360.2C250.008 367.057 256.942 373.946 263.787 380.93C265.659 382.84 267.528 384.754 269.366 386.698C271.335 388.78 273.045 391.108 275.026 393.164C275.181 393.325 274.941 393.561 274.779 393.408C273.037 391.758 271.058 390.347 269.279 388.729C267.436 387.052 265.629 385.334 263.836 383.604C260.316 380.21 256.807 376.806 253.315 373.383C246.336 366.54 239.384 359.655 232.633 352.585C228.82 348.591 224.855 344.674 221.282 340.461C221.071 340.213 221.392 339.902 221.639 340.108Z" fill="#263238"/>
<path d="M231.17 319.888L222.314 312.465L222.745 312.347C218.527 328.23 213.88 343.992 209.518 359.822C207.672 366.699 205.685 373.592 204.535 380.618C203.36 389.706 203.39 398.932 204.454 408.122C202.252 399.122 201.543 389.666 202.349 380.37C204.516 365.024 209.444 350.211 214.024 335.462C216.627 327.513 219.392 319.617 222.381 311.8L222.667 312.063L231.17 319.888Z" fill="#263238"/>
<path d="M450.927 342.296C437.814 360.055 424.141 380.666 420.812 402.937C420.772 403.274 421.312 403.384 421.39 403.05C422.912 396.941 424.838 391.01 427.189 385.218C435.81 382.846 444.271 380.897 448.799 372.34C453.417 363.544 452.83 352.076 451.952 342.494C451.89 341.98 451.194 341.955 450.927 342.296Z" fill="#5F27FF"/>
<path d="M427.318 385.051C433.209 371.832 440.772 358.559 450.384 347.688C450.449 347.615 450.549 347.72 450.49 347.794C444.197 355.536 439.415 363.968 434.744 372.546C439.086 368.138 443.844 364.19 447.956 359.516C448.036 359.425 448.164 359.557 448.088 359.648C444.004 364.548 439.543 369.874 434.224 373.501C432.795 376.133 431.357 378.774 429.899 381.413C430.256 381.214 430.625 381.035 430.992 380.854C431.056 380.822 431.113 380.918 431.049 380.951C430.643 381.156 430.242 381.373 429.823 381.55C429.132 382.799 428.448 384.05 427.738 385.296C427.58 385.573 427.194 385.33 427.318 385.051Z" fill="#263238"/>
<path d="M431.701 380.439C435.215 378.424 438.605 376.258 441.767 373.719C441.853 373.65 441.977 373.769 441.89 373.842C438.784 376.471 435.472 378.825 431.846 380.686C431.682 380.77 431.54 380.531 431.701 380.439Z" fill="#263238"/>
<path d="M419.294 399.626C419.321 399.896 419.779 399.891 419.773 399.604C419.841 392.27 419.78 384.902 419.89 377.534C421.769 373.742 425.802 371.644 428.606 368.605C430.628 366.412 432.358 363.939 433.837 361.322C437.305 355.117 439.183 348.14 439.905 341.09C440.679 333.245 437.702 307.358 434.395 308.257C432.68 308.723 427.131 321.545 425.659 325.784C423.248 332.757 421.552 339.983 420.439 347.276C417.759 364.535 417.983 382.258 419.294 399.626Z" fill="#5F27FF"/>
<path d="M419.242 367.988C419.253 367.979 419.264 367.969 419.275 367.959C419.677 358.679 421.768 349.308 423.725 340.307C425.833 330.611 428.298 321.481 433.287 312.832C433.38 312.671 433.618 312.813 433.535 312.977C430.139 319.667 427.712 326.771 425.853 334.066C426.187 333.543 426.593 333.047 426.94 332.554C427.077 332.36 427.398 332.541 427.263 332.743C426.774 333.474 426.332 334.326 425.704 334.945C425.683 334.966 425.661 334.968 425.639 334.975C423.921 341.905 422.688 348.995 421.633 356.066C421.712 355.976 421.788 355.88 421.868 355.793C421.922 355.735 422.013 355.809 421.976 355.876C421.846 356.11 421.699 356.343 421.556 356.577C421.025 360.167 420.532 363.749 420.036 367.3C426.427 361.838 431.885 355.399 434.963 347.466C434.978 347.43 435.037 347.445 435.023 347.483C432.007 355.712 427.253 363.027 419.934 368.019C419.8 368.976 419.667 369.933 419.531 370.885C419.503 371.083 419.188 371.031 419.189 370.839C419.192 369.994 419.232 369.146 419.266 368.299C419.174 368.216 419.132 368.08 419.242 367.988Z" fill="#263238"/>
<path d="M422.252 354.542C427.136 347.253 431.698 340.174 435.272 332.117C435.312 332.027 435.466 332.092 435.431 332.184C432.42 340.189 428.202 348.3 422.497 354.73C422.381 354.862 422.154 354.689 422.252 354.542Z" fill="#263238"/>
<path d="M428.743 330.317C430.767 326.737 432.9 323.254 434.804 319.603C434.857 319.501 434.998 319.591 434.955 319.691C433.357 323.422 431.448 327.21 429.056 330.499C428.921 330.683 428.626 330.524 428.743 330.317Z" fill="#263238"/>
<path d="M427.953 331.874C427.993 331.874 427.993 331.937 427.953 331.937C427.913 331.936 427.913 331.874 427.953 331.874Z" fill="#263238"/>
<path d="M414.331 378.416C414.206 383.275 413.681 388.136 412.617 392.866C412.692 393.388 412.767 393.91 412.844 394.448C414.376 389.184 415.176 383.788 415.428 378.342C415.512 378.191 415.546 378.028 415.451 377.844C415.451 377.844 415.451 377.844 415.45 377.828C415.727 370.555 415.052 363.202 413.831 356.005C411.56 342.526 406.598 329.591 397.198 319.488C396.9 319.177 396.305 319.338 396.16 319.702C392.367 329.347 393.69 340.856 396.921 350.478C398.679 355.661 401.189 360.638 404.375 365.095C407.6 369.629 411.711 373.465 414.331 378.416Z" fill="#5F27FF"/>
<path d="M398.31 324.002C407.219 338.46 413.417 355.603 414.175 372.682C414.189 372.984 413.679 373.065 413.636 372.755C413.425 371.221 413.191 369.7 412.945 368.185C412.94 368.181 412.934 368.184 412.929 368.179C409.243 364.649 405.46 360.925 402.821 356.513C402.775 356.436 402.886 356.344 402.948 356.415C406.155 360.08 409.146 363.834 412.767 367.102C412.129 363.326 411.373 359.61 410.478 355.948C410.239 355.675 410.007 355.395 409.773 355.12C409.619 354.939 409.876 354.675 410.037 354.856C410.108 354.935 410.179 355.014 410.251 355.093C408.989 350.065 407.448 345.142 405.593 340.305C403.325 337.6 400.79 335.262 399.137 332.003C399.097 331.924 399.205 331.863 399.255 331.934C400.583 333.797 401.868 335.672 403.375 337.402C403.975 338.091 404.634 338.735 405.257 339.407C403.23 334.244 400.824 329.181 397.963 324.204C397.837 323.98 398.175 323.784 398.31 324.002Z" fill="#263238"/>
<path d="M400.11 341.837C402.99 345.712 406.271 349.41 408.948 353.415C409.025 353.53 408.857 353.648 408.762 353.558C405.322 350.331 402.412 345.925 399.916 341.95C399.838 341.826 400.027 341.724 400.11 341.837Z" fill="#263238"/>
<path d="M409.352 354.313L409.474 354.436C409.559 354.521 409.427 354.653 409.342 354.568L409.219 354.445C409.134 354.36 409.267 354.228 409.352 354.313Z" fill="#263238"/>
<path d="M384.352 351.797C385.068 359.236 388.981 368.121 393.753 373.853C395.868 376.388 398.433 378.328 401.377 379.802C404.679 381.436 408.136 383.317 411.552 384.658C413.149 388.734 414.371 393.004 415.154 397.454C415.264 397.082 415.374 396.693 415.484 396.321C413.292 377.488 401.105 361.39 385.516 351.056C384.954 350.683 384.29 351.161 384.352 351.797Z" fill="#5F27FF"/>
<path d="M389.738 357.361C389.628 357.264 389.776 357.066 389.896 357.155C398.157 363.275 405.601 372.198 409.759 381.635C409.873 381.893 409.519 382.118 409.372 381.861C408.648 380.591 407.909 379.356 407.157 378.143C407.153 378.142 407.151 378.146 407.146 378.145C403.588 377.475 400.218 374.971 397.577 372.594C397.506 372.53 397.611 372.425 397.683 372.488C399.062 373.703 400.542 374.815 402.185 375.65C403.635 376.387 405.197 376.851 406.707 377.441C405.388 375.348 404.014 373.341 402.579 371.394C398.75 370.09 395.104 367.738 391.885 365.383C391.784 365.309 391.873 365.143 391.985 365.211C395.265 367.185 398.5 368.923 401.924 370.524C399.767 367.666 397.432 364.96 394.907 362.343C393.698 361.705 392.471 361.063 391.299 360.38C391.204 360.324 391.266 360.161 391.376 360.198C392.31 360.509 393.261 360.998 394.144 361.558C392.738 360.135 391.29 358.731 389.738 357.361Z" fill="#263238"/>
<path d="M390.069 363.864C390.284 364.001 390.479 364.124 390.669 364.292C390.726 364.343 390.653 364.416 390.593 364.39C390.365 364.29 390.178 364.17 389.968 364.036C389.861 363.967 389.961 363.795 390.069 363.864Z" fill="#263238"/>
<path d="M439.811 438.238H397.094L400.543 399.338L401.3 390.759H435.605L436.362 399.338L439.811 438.238Z" fill="#455A64"/>
<path d="M436.362 399.338H400.543L401.3 390.759H435.605L436.362 399.338Z" fill="#263238"/>
<path d="M437.649 384.761H399.256V393.251H437.649V384.761Z" fill="#455A64"/>
<path d="M355.929 133.675C356.428 139.443 352.156 144.524 346.388 145.023C340.62 145.522 335.539 141.25 335.04 135.482C334.541 129.714 338.813 124.633 344.581 124.134C350.35 123.635 355.43 127.907 355.929 133.675Z" fill="white"/>
<path d="M355.929 133.675C356.829 143.002 345.735 148.897 338.464 142.929C333.84 139.298 333.198 131.928 337.133 127.557C343.269 120.424 355.217 124.333 355.929 133.675ZM355.929 133.675C355.115 124.552 343.516 121.008 337.788 128.108C334.307 132.193 334.879 138.85 339.013 142.276C345.874 148.292 356.697 142.801 355.929 133.675Z" fill="#263238"/>
<path d="M328.154 144.56C328.432 147.77 326.054 150.598 322.844 150.876C319.633 151.154 316.806 148.776 316.528 145.566C316.25 142.355 318.628 139.528 321.838 139.25C325.048 138.972 327.876 141.349 328.154 144.56Z" fill="white"/>
<path d="M328.154 144.56C328.689 149.76 322.408 153.186 318.31 149.857C315.615 147.818 315.239 143.502 317.545 141.03C321.01 137.044 327.79 139.345 328.154 144.56ZM328.154 144.56C327.27 137.195 316.609 138.174 317.025 145.523C317.875 152.84 328.549 151.967 328.154 144.56Z" fill="#263238"/>
<path d="M447.48 88.727C449.518 105.506 437.572 120.76 420.792 122.811C415.293 123.478 409.948 122.644 405.192 120.632C401.141 125.926 395.04 129.643 387.9 130.515C378.517 131.656 369.685 127.567 364.34 120.542C363.238 120.875 362.084 121.119 360.905 121.26C349.484 122.644 339.101 114.518 337.717 103.097C337.076 97.777 338.486 92.689 341.345 88.625C337.974 84.356 335.705 79.152 335 73.371C332.962 56.579 344.908 41.325 361.688 39.287C369.328 38.364 376.647 40.325 382.556 44.337C386.607 39.274 392.567 35.736 399.515 34.89C411.513 33.429 422.588 40.504 426.651 51.336C427.702 50.977 428.804 50.733 429.945 50.593C439.161 49.478 447.532 56.041 448.647 65.244C449.262 70.294 447.57 75.101 444.391 78.588C445.98 81.677 447.044 85.086 447.48 88.727Z" fill="white"/>
<path d="M447.48 88.727C448.811 99.43 444.223 110.44 435.561 116.912C427.061 123.484 415.018 125.039 405.123 120.796L405.334 120.74C400.541 127.096 392.717 130.991 384.747 130.939C376.758 130.996 368.934 127.08 364.095 120.729L364.431 120.838C362.868 121.322 361.248 121.598 359.616 121.674C342.007 122.774 330.867 102.834 340.976 88.364L340.991 88.905C325.894 69.971 337.863 41.542 361.901 38.899C369.174 38.057 376.709 39.945 382.729 44.085L382.32 44.147C394.809 28.559 419.805 32.566 426.797 51.283L426.604 51.191C427.928 50.752 429.304 50.463 430.697 50.398C436.727 49.87 442.88 52.961 446.118 58.066C450.286 64.287 449.548 73.163 444.416 78.607C446.01 81.595 447.077 85.253 447.48 88.727ZM447.48 88.727C447.049 85.195 445.994 81.739 444.355 78.583C449.433 73.149 450.137 64.318 445.962 58.166C441.974 51.868 433.569 48.992 426.562 51.529C419.689 33.105 395.045 29.081 382.795 44.528L382.619 44.749L382.385 44.59C376.46 40.565 369.081 38.764 361.982 39.626C338.621 42.329 327.213 69.878 341.701 88.344L341.911 88.61L341.716 88.885C331.917 102.775 342.598 122.005 359.579 121.03C361.235 120.964 362.876 120.68 364.459 120.185C369.151 126.517 376.852 130.468 384.749 130.452C392.586 130.546 400.299 126.755 405.053 120.524L405.138 120.414L405.264 120.468C415.037 124.727 427.001 123.239 435.456 116.77C444.127 110.362 448.749 99.407 447.48 88.727Z" fill="#263238"/>
<path d="M395.253 87.0511L395.015 91.2791C394.912 93.0981 393.47 94.387 391.648 94.284C389.959 94.189 388.54 92.739 388.643 90.92L389.024 84.156C389.028 84.093 389.094 84.0961 389.097 84.0301C389.034 83.9631 389.034 83.9631 389.038 83.8971C389.133 82.2051 390.713 80.7941 392.402 80.8891C396.5 81.1201 400 78.0561 400.227 74.0241C400.458 69.9291 397.32 66.555 393.223 66.324C390.557 66.174 388.136 67.4741 386.779 69.5491C385.783 71.0601 383.803 71.4691 382.292 70.4701C380.847 69.4781 380.435 67.5611 381.433 66.0531C384 62.1531 388.575 59.6701 393.581 59.9521C401.126 60.3771 406.957 66.837 406.532 74.379C406.171 80.817 401.379 85.9621 395.253 87.0511ZM394.45 101.29L394.384 102.46C394.281 104.281 392.839 105.57 391.017 105.468C389.328 105.373 387.909 103.923 388.012 102.101L388.078 100.931C388.177 99.176 389.753 97.8311 391.442 97.9261C393.264 98.0281 394.549 99.5351 394.45 101.29Z" fill="#5F27FF"/>
</svg>
