<svg width="512" height="453" viewBox="0 0 512 453" fill="none" xmlns="http://www.w3.org/2000/svg">
<g clip-path="url(#clip0_148_403)">
<path d="M276.915 436.666C243.926 426.77 213.95 407.755 189.297 380.851C195.472 381.418 202.08 381.809 209.116 382.01C241.426 382.959 272.283 378.71 300.455 370.195C330.016 361.258 357.142 347.419 380.382 329.785C404.361 311.589 423.942 289.484 437.62 264.615C449.852 242.381 457.46 217.846 459.43 191.779C463.974 196.064 468.311 200.565 472.424 205.265C491.937 227.581 505.436 253.566 510.139 280.293C514.995 307.887 510.596 336.144 494.025 362.016C488.977 369.896 482.777 377.536 475.339 384.84L483.504 433.908C484.05 436.78 483.773 439.749 482.704 442.47C479.572 450.487 470.533 454.446 462.516 451.314L407.012 429.488C362.166 447.164 317.375 448.803 276.915 436.666Z" fill="#272727"/>
<path fill-rule="evenodd" clip-rule="evenodd" d="M212.522 382.09C263.937 429.397 335.422 443.162 406.905 412.7L468.188 436.798L458.595 379.147C515.617 329.288 502.382 260.013 456.868 211.263C453.313 230.117 446.757 248.008 437.62 264.615C423.942 289.484 404.361 311.589 380.382 329.785C357.142 347.419 330.016 361.258 300.455 370.195C273.274 378.41 243.594 382.654 212.522 382.09Z" fill="#E17222"/>
<path d="M369.951 55.1668C408.636 88.3318 431.83 133.515 430.378 182.871L430.374 183.043C428.858 232.45 402.961 276.232 362.309 307.079C322.596 337.215 268.663 354.99 209.926 353.262C194.868 352.82 180.257 351.285 166.336 348.578C154.459 346.27 142.947 343.103 131.937 339.033L25.5519 371.527L57.5009 295.543C40.2599 280.163 26.2779 262.345 16.4349 242.837C5.17492 220.521 -0.707077 196.009 0.0679228 170.392C1.56092 120.96 27.4619 77.1558 68.1309 46.2968C153.769 -18.6872 288.299 -14.8342 369.951 55.1668Z" fill="#272727"/>
<path fill-rule="evenodd" clip-rule="evenodd" d="M220.09 15.665C330.325 18.909 417.512 93.63 414.821 182.555C412.133 271.485 320.588 340.952 210.352 337.709C182.602 336.894 156.114 332.044 132.556 322.583L52.755 346.957L76.273 291.024C37.672 260.444 14.205 217.602 15.622 170.819C18.307 81.889 109.855 12.424 220.09 15.665Z" fill="#338CF4"/>
<path d="M129.631 216.936C124.263 216.936 119.911 212.584 119.911 207.216C119.911 201.848 124.263 197.496 129.631 197.496H249.43C254.798 197.496 259.15 201.848 259.15 207.216C259.15 212.584 254.798 216.936 249.43 216.936H129.631ZM129.631 148.009C124.263 148.009 119.911 143.657 119.911 138.289C119.911 132.922 124.263 128.57 129.631 128.57H300.809C306.177 128.57 310.528 132.922 310.528 138.289C310.528 143.657 306.177 148.009 300.809 148.009H129.631Z" fill="#272727"/>
</g>
<defs>
<clipPath id="clip0_148_403">
<rect width="512" height="452.387" fill="white"/>
</clipPath>
</defs>
</svg>
