<svg width="512" height="513" viewBox="0 0 512 513" fill="none" xmlns="http://www.w3.org/2000/svg">
<g clip-path="url(#clip0_149_409)">
<path d="M318.647 319.401C336.042 358.116 377.111 364.951 411.742 371.646C462.398 381.432 512 429.266 512 483.478V505.572C512 509.297 508.96 512.337 505.225 512.337H6.775C3.04 512.337 0 509.297 0 505.572V485.584C0 420.444 52.682 381.968 105.911 374.845C144.635 369.67 176.862 364.414 190.492 317.604C194.019 320.693 197.725 323.812 201.5 327.17C236.777 358.533 276.525 359.894 310.51 327.121C313.302 324.418 316.034 321.875 318.647 319.401Z" fill="#560D42"/>
<path d="M318.647 319.411C327.747 339.658 343.324 351.192 361.056 358.533C301.072 402.543 218.259 399.999 156.566 362.388C175.253 352.324 184.611 337.75 190.473 317.593C193.999 320.683 197.715 323.803 201.5 327.17C236.777 358.533 276.525 359.894 310.51 327.121C313.302 324.418 316.034 321.875 318.647 319.411Z" fill="#D2A75F"/>
<path d="M259.328 391.058C223.455 391.217 187.373 381.163 156.566 362.388C175.183 352.364 184.78 337.562 190.482 317.593C194.019 320.683 197.715 323.803 201.5 327.17C220.028 343.642 239.807 351.837 259.328 351.162V391.058Z" fill="#DBB26F"/>
<path fill-rule="evenodd" clip-rule="evenodd" d="M134.739 212.161C139.394 198.837 150.221 203.121 165.643 208.749L165.501 208.083L165.643 208.158C176.647 92.6831 251.041 158.965 306.765 98.201C336.044 112.619 354.977 141.305 350.131 205.268L350.287 205.144C349.836 208.487 349.324 211.821 348.753 215.145C362.776 204.524 382.994 205.512 376.635 229.05L367.948 253.655C365.871 259.544 364.482 261.682 357.038 261.282C353.75 261.107 350.443 259.839 347.144 257.66C350.19 293.97 332.565 305.817 310.504 327.109C276.527 359.896 236.776 358.542 201.509 327.168C180.851 308.793 162.505 297.634 161.589 259.861C156.233 261.502 151.169 261.8 146.747 259.286C137.933 254.27 134.723 239.672 134.242 230.324C134.049 226.565 134.21 215.989 134.739 212.161Z" fill="#E9BE79"/>
<path fill-rule="evenodd" clip-rule="evenodd" d="M134.741 212.161C139.401 198.835 150.218 203.125 165.644 208.75L165.506 208.085L165.644 208.16C173.683 123.755 215.591 136.447 259.324 125.667V351.16C239.809 351.843 220.037 343.654 201.507 327.168C180.85 308.794 162.502 297.639 161.593 259.863C156.237 261.5 151.171 261.8 146.75 259.286C133.913 251.98 132.879 225.562 134.741 212.161Z" fill="#F2CD8C"/>
<path fill-rule="evenodd" clip-rule="evenodd" d="M108.075 92.791C176.124 8.70296 254.558 -37.032 313.452 37.772C385.626 41.562 410.663 159.325 350.13 205.269C354.979 141.306 336.044 112.618 306.766 98.202C251.041 158.966 176.646 92.682 165.644 208.157L138.937 194.248C136.285 161.129 144.043 103.671 108.075 92.791Z" fill="#38230E"/>
</g>
<defs>
<clipPath id="clip0_149_409">
<rect width="512" height="512.337" fill="white"/>
</clipPath>
</defs>
</svg>
